<svg width="187" height="124" viewBox="0 0 187 124" fill="none" xmlns="http://www.w3.org/2000/svg">
<path d="M173.977 121.438C178.323 111.051 180.729 99.6432 180.729 87.6638C180.729 39.2618 141.467 0 93.0476 0C44.6282 0 5.36647 39.2618 5.36647 87.6811C5.36647 99.6432 7.77272 111.051 12.1178 121.455H173.977V121.438Z" fill="#FCAF63"/>
<path d="M33.6529 66.25C31.7141 68.7601 30.6581 71.8415 30.6581 75.0268V91.7321C30.6581 98.9855 36.5439 104.871 43.7973 104.871H142.315C149.569 104.871 155.454 98.9855 155.454 91.7321V75.0268C155.454 71.8588 154.398 68.7601 152.46 66.25C151.023 64.3804 148.79 63.2898 146.435 63.2898C129.141 63.2898 56.9884 63.2898 39.6945 63.2898C37.3229 63.2898 35.1071 64.3804 33.6529 66.25Z" fill="#E58F83"/>
<path d="M142.315 104.871H136.135V117.405C136.135 119.638 137.953 121.438 140.169 121.438H151.404C153.637 121.438 155.437 119.638 155.437 117.405V91.7321C155.437 98.9854 149.569 104.871 142.315 104.871Z" fill="#E58F83"/>
<path d="M43.7973 104.871H49.9774V117.405C49.9774 119.638 48.1597 121.438 45.9439 121.438H34.7089C32.4758 121.438 30.6754 119.638 30.6754 117.405V91.7321C30.6581 98.9854 36.5439 104.871 43.7973 104.871Z" fill="#E58F83"/>
<path d="M33.6529 66.25C31.7141 68.7601 30.6581 71.8415 30.6581 75.0268V91.7321C30.6581 98.9855 36.5439 104.871 43.7973 104.871H142.315C149.569 104.871 155.454 98.9855 155.454 91.7321V75.0268C155.454 71.8588 154.398 68.7601 152.46 66.25C151.023 64.3804 148.79 63.2898 146.435 63.2898C129.141 63.2898 56.9884 63.2898 39.6945 63.2898C37.3229 63.2898 35.1071 64.3804 33.6529 66.25Z" fill="#9B4F42"/>
<path d="M142.315 104.871H136.135V117.405C136.135 119.638 137.953 121.438 140.169 121.438H151.404C153.637 121.438 155.437 119.638 155.437 117.405V91.7321C155.437 98.9854 149.569 104.871 142.315 104.871Z" fill="#595453"/>
<path d="M43.7973 104.871H49.9774V117.405C49.9774 119.638 48.1597 121.438 45.9439 121.438H34.7089C32.4758 121.438 30.6754 119.638 30.6754 117.405V91.7321C30.6581 98.9854 36.5439 104.871 43.7973 104.871Z" fill="#595453"/>
<path d="M138.074 63.2897L125.541 47.0864C122.823 43.5723 118.634 41.5295 114.202 41.5295H71.8933C67.4617 41.5295 63.2724 43.5896 60.5545 47.0864L48.0212 63.2897H138.074Z" fill="#E58F83"/>
<path d="M138.074 63.2897L125.541 47.0864C122.823 43.5723 118.634 41.5295 114.202 41.5295H71.8933C67.4617 41.5295 63.2724 43.5896 60.5545 47.0864L48.0212 63.2897H138.074Z" fill="#9B4F42"/>
<path d="M101.253 63.2897H138.074L125.541 47.0864C122.823 43.5723 118.634 41.5295 114.202 41.5295H101.253V63.2897Z" fill="#E58F83"/>
<path d="M138.074 65.8518H48.0212C47.0518 65.8518 46.1516 65.2979 45.7361 64.4323C45.3034 63.5494 45.4072 62.5108 46.0131 61.7491L58.5464 45.5458C61.7144 41.443 66.7173 38.9849 71.9107 38.9849H114.202C119.395 38.9849 124.381 41.443 127.566 45.5458L140.099 61.7491C140.688 62.5108 140.809 63.5667 140.376 64.4323C139.944 65.2979 139.043 65.8518 138.074 65.8518ZM53.2319 60.745H132.881L123.533 48.6618C121.317 45.8055 117.837 44.0917 114.219 44.0917H71.9107C68.2926 44.0917 64.7958 45.8055 62.5972 48.6618L53.2319 60.745Z" fill="#282727"/>
<path d="M45.5977 62.9262C44.9398 62.9262 44.2993 62.6839 43.7973 62.1818L38.2404 56.6249C37.6691 56.0537 36.9074 55.7421 36.0938 55.7421H33.0644C31.6622 55.7421 30.5196 54.5995 30.5196 53.1973C30.5196 51.7951 31.6622 50.6526 33.0644 50.6526H36.0938C38.275 50.6526 40.3177 51.5008 41.8411 53.0415L47.398 58.5984C48.4021 59.5852 48.4021 61.2124 47.398 62.1991C46.9133 62.6839 46.2555 62.9262 45.5977 62.9262Z" fill="#282727"/>
<path d="M140.498 62.9262C139.84 62.9262 139.199 62.6838 138.697 62.1818C137.693 61.1778 137.693 59.5678 138.697 58.5811L144.254 53.0242C145.795 51.4835 147.838 50.6353 150.019 50.6353H153.048C154.45 50.6353 155.593 51.7778 155.593 53.18C155.593 54.5822 154.45 55.7247 153.048 55.7247H150.019C149.205 55.7247 148.443 56.0363 147.872 56.6076L142.315 62.1645C141.813 62.6838 141.155 62.9262 140.498 62.9262Z" fill="#282727"/>
<path d="M142.315 107.433H43.7973C35.1417 107.433 28.1134 100.405 28.1134 91.7495V75.0442C28.1134 71.3223 29.3598 67.6523 31.6448 64.7094C33.5837 62.1993 36.5266 60.7625 39.6945 60.7625H146.435C149.603 60.7625 152.529 62.1993 154.485 64.7094C156.77 67.6523 158.016 71.3223 158.016 75.0442V91.7495C157.999 100.388 150.954 107.433 142.315 107.433ZM33.6529 66.2501L35.6784 67.8081C34.0857 69.8681 33.2202 72.4302 33.2202 75.0269V91.7322C33.2202 97.566 37.9634 102.309 43.7973 102.309H142.315C148.149 102.309 152.892 97.566 152.892 91.7322V75.0269C152.892 72.4302 152.01 69.8681 150.434 67.8081C149.465 66.5617 148.011 65.8346 146.418 65.8346H39.6772C38.1019 65.8346 36.6305 66.5444 35.6784 67.8081L33.6529 66.2501Z" fill="#282727"/>
<path d="M151.404 124H140.169C136.533 124 133.573 121.04 133.573 117.405V104.871C133.573 103.469 134.716 102.326 136.118 102.326H142.298C148.132 102.326 152.875 97.5832 152.875 91.7493C152.875 90.3471 154.018 89.2046 155.42 89.2046C156.822 89.2046 157.965 90.3471 157.965 91.7493V117.405C157.999 121.04 155.039 124 151.404 124ZM138.68 107.433V117.405C138.68 118.218 139.355 118.893 140.169 118.893H151.404C152.217 118.893 152.892 118.218 152.892 117.405V103.313C150.105 105.875 146.383 107.433 142.315 107.433H138.68Z" fill="#282727"/>
<path d="M45.9266 124H34.6916C31.0563 124 28.0961 121.04 28.0961 117.404V91.732C28.0961 90.3298 29.2386 89.1873 30.6408 89.1873C32.043 89.1873 33.1855 90.3298 33.1855 91.732C33.1855 97.5659 37.9288 102.309 43.7627 102.309H49.9428C51.345 102.309 52.4875 103.452 52.4875 104.854V117.387C52.5221 121.04 49.5619 124 45.9266 124ZM33.2029 103.313V117.404C33.2029 118.218 33.878 118.893 34.6916 118.893H45.9266C46.7402 118.893 47.4153 118.218 47.4153 117.404V107.433H43.78C39.7119 107.433 36.0073 105.858 33.2029 103.313Z" fill="#282727"/>
<path d="M137.208 84.9288H48.8868C47.4846 84.9288 46.342 83.7863 46.342 82.3841C46.342 80.9819 47.4846 79.8394 48.8868 79.8394H137.208C138.611 79.8394 139.753 80.9819 139.753 82.3841C139.753 83.7863 138.628 84.9288 137.208 84.9288Z" fill="#282727"/>
<path d="M62.026 92.5803H48.8868V82.3667H65.8171V88.7891C65.8171 90.9011 64.1206 92.5803 62.026 92.5803Z" fill="#E58F83"/>
<path d="M124.069 92.5803H137.208V82.3667H120.278V88.7891C120.295 90.9011 121.975 92.5803 124.069 92.5803Z" fill="#E58F83"/>
<path d="M58.3733 95.1424H48.8868C47.4846 95.1424 46.342 93.9999 46.342 92.5977V82.3841C46.342 80.9819 47.4846 79.8394 48.8868 79.8394H65.8171C67.2193 79.8394 68.3619 80.9819 68.3619 82.3841V85.1539C68.3619 90.6588 63.8783 95.1424 58.3733 95.1424ZM51.4488 90.0356H58.3733C61.0739 90.0356 63.2724 87.8371 63.2724 85.1366V84.9288H51.4488V90.0356Z" fill="#282727"/>
<path d="M137.208 95.1424H127.722C122.217 95.1424 117.733 90.6588 117.733 85.1539V82.3841C117.733 80.9819 118.876 79.8394 120.278 79.8394H137.208C138.611 79.8394 139.753 80.9819 139.753 82.3841V92.5977C139.77 93.9999 138.628 95.1424 137.208 95.1424ZM122.84 84.9288V85.1366C122.84 87.8371 125.039 90.0356 127.739 90.0356H134.664V84.9288H122.84Z" fill="#282727"/>
<path d="M116.227 104.871H69.8679V96.5446C69.8679 95.2635 70.9066 94.2249 72.1876 94.2249H113.908C115.189 94.2249 116.227 95.2635 116.227 96.5446V104.871Z" fill="#6D352E"/>
<path d="M116.227 107.433H69.8679C68.4657 107.433 67.3232 106.291 67.3232 104.889V98.8123C67.3232 94.8826 70.5085 91.6974 74.4381 91.6974H111.674C115.604 91.6974 118.789 94.8826 118.789 98.8123V104.889C118.789 106.291 117.647 107.433 116.227 107.433ZM72.4127 102.326H113.665V98.795C113.665 97.6871 112.765 96.7869 111.657 96.7869H74.4381C73.3302 96.7869 72.43 97.6871 72.43 98.795V102.326H72.4127Z" fill="#282727"/>
<path d="M110.428 82.384H75.6845V94.2249H110.428V82.384Z" fill="#6D352E"/>
<path d="M110.428 96.7697H75.6845C74.2823 96.7697 73.1398 95.6272 73.1398 94.225V82.3841C73.1398 80.9819 74.2823 79.8394 75.6845 79.8394H110.428C111.83 79.8394 112.973 80.9819 112.973 82.3841V94.225C112.973 95.6272 111.83 96.7697 110.428 96.7697ZM78.2292 91.6802H107.866V84.9462H78.2292V91.6802Z" fill="#282727"/>
<path d="M75.6845 84.9286C74.9921 84.9286 74.2996 84.6517 73.7976 84.0977L56.3479 65.0208C55.3958 63.9821 55.465 62.3722 56.5037 61.4201C57.5424 60.4679 59.1523 60.5372 60.1044 61.5759L77.5541 80.6528C78.5062 81.6914 78.437 83.3014 77.3983 84.2535C76.9136 84.7036 76.2904 84.9286 75.6845 84.9286Z" fill="#282727"/>
<path d="M110.428 84.9286C109.805 84.9286 109.199 84.7036 108.714 84.2535C107.676 83.3014 107.606 81.6914 108.558 80.6528L126.008 61.5759C126.96 60.5372 128.587 60.4679 129.609 61.4201C130.648 62.3722 130.717 63.9821 129.765 65.0208L112.298 84.0977C111.796 84.6517 111.103 84.9286 110.428 84.9286Z" fill="#282727"/>
<path d="M183.55 124H2.54474C1.14254 124 0 122.857 0 121.438C0 120.036 1.14254 118.893 2.54474 118.893H183.533C184.935 118.893 186.078 120.036 186.078 121.438C186.095 122.857 184.953 124 183.55 124Z" fill="#282727"/>
</svg>
